<svg xmlns="http://www.w3.org/2000/svg" viewBox="0 0 341.34 246.2"><defs><style>.cls-1{fill:#fff;}</style></defs><title>Asset 1</title><g id="Layer_2" data-name="Layer 2"><g id="Layer_1-2" data-name="Layer 1"><path class="cls-1" d="M118.84,160.25a12.21,12.21,0,0,0-4.33-3.12,14.9,14.9,0,0,0-6.06-1.15H98.76v29.15h9.69a15,15,0,0,0,5.73-1,12.38,12.38,0,0,0,4.37-3,13,13,0,0,0,2.77-4.6,17.73,17.73,0,0,0,1-6,18.11,18.11,0,0,0-.86-5.65A13.09,13.09,0,0,0,118.84,160.25Zm.6,15.3a11.75,11.75,0,0,1-2.24,4,10.12,10.12,0,0,1-3.67,2.69,12.52,12.52,0,0,1-5.07,1h-7.6V157.87h7.6a12.47,12.47,0,0,1,5,.95,10.38,10.38,0,0,1,3.68,2.63,11.42,11.42,0,0,1,2.28,4,15.82,15.82,0,0,1,.78,5.07A16.07,16.07,0,0,1,119.44,175.55Zm25.89-2.77a7.87,7.87,0,0,0,2.18-2,9.14,9.14,0,0,0,1.4-2.69,9.89,9.89,0,0,0,.49-3.1,8.88,8.88,0,0,0-.64-3.26,9.9,9.9,0,0,0-1.77-2.92,8.72,8.72,0,0,0-2.69-2.07,7.53,7.53,0,0,0-3.41-.78H128.78v29.15h2.09v-11h9.45l7.06,11h2.42l-7.27-11.33A7.64,7.64,0,0,0,145.33,172.78Zm-14.45-.58V157.87h9.94a5.5,5.5,0,0,1,2.53.6,7,7,0,0,1,2.05,1.58,7.6,7.6,0,0,1,1.4,2.28,7.25,7.25,0,0,1,.51,2.69,8.31,8.31,0,0,1-.43,2.65,7.2,7.2,0,0,1-1.25,2.3,6.45,6.45,0,0,1-2,1.62,5.31,5.31,0,0,1-2.55.62ZM156.17,156h2.09v29.15h-2.09Zm31.66,0H190l-12.32,29.15h-1.93L163.43,156h2.22l11.09,26.53Zm7.43,0h2.09v29.15h-2.09Zm32.52,0h2.09v29.15h-1.93l-20.12-25.21v25.21h-2.09V156h1.6l20.45,25.66Zm33.71,15v14.17h-1.81v-4.56a12.79,12.79,0,0,1-9.81,4.76,12,12,0,0,1-5.48-1.27,14,14,0,0,1-4.33-3.37,16,16,0,0,1-2.83-4.76,15,15,0,0,1-1-5.42,15.57,15.57,0,0,1,1-5.54,15.4,15.4,0,0,1,2.79-4.72,13.42,13.42,0,0,1,4.25-3.26,12,12,0,0,1,5.38-1.21,15,15,0,0,1,3.92.47,11.93,11.93,0,0,1,3.12,1.31,10,10,0,0,1,2.38,2,12.56,12.56,0,0,1,1.7,2.57l-1.72,1a9.39,9.39,0,0,0-3.92-4.17,11.63,11.63,0,0,0-5.52-1.29,9.85,9.85,0,0,0-4.68,1.11,11.55,11.55,0,0,0-3.57,2.91,13.06,13.06,0,0,0-2.26,4.11,14.6,14.6,0,0,0-.78,4.72,13.49,13.49,0,0,0,3.39,9,12.07,12.07,0,0,0,3.72,2.81,10.31,10.31,0,0,0,4.6,1,11,11,0,0,0,5.07-1.23,15.11,15.11,0,0,0,4.62-3.9v-5.63h-6.61V171Z"/><path class="cls-1" d="M53.65,89.12a6,6,0,0,1,.88-3.59A8.78,8.78,0,0,1,57,82.83a4.48,4.48,0,0,1,3.56-.94,3.83,3.83,0,0,1,2.59,2.49,7,7,0,0,1,.44,3.72,5.63,5.63,0,0,1-1.5,3.42c-1,1.07-3.48,1.36-5.44.91C54.19,91.62,53.72,90,53.65,89.12ZM341.32,44.85c.5.59-9.39,12.13-9.39,12.13a45.44,45.44,0,0,1-12.46,11.3,59.25,59.25,0,0,1-14.75,6.29,82.28,82.28,0,0,1-16.46,2.73,148.43,148.43,0,0,1-17.33.11c-6.65-.29-13.45-.75-20.21-1.34s-13.82-.89-21.13-.89H217c-3.83,0-7.79.06-11.78.19a9.78,9.78,0,0,1-.88,1.41,7.18,7.18,0,0,0-.91,1.64q-3.81,7.42-7.15,14.87c-2.22,5-4.39,10.08-6.43,15.19a50.66,50.66,0,0,0-2,5.16c-.9,2.62-1.83,5.49-2.77,8.53s-1.72,6-2.3,8.87c-.68,3.3-.57,5-.35,5.87.14.54.18.72,1,.52.56-.13,2.33-.95,6.67-5.66a67.51,67.51,0,0,0,6.9-8.1c1.64-2.27,3.09-4.37,4.34-6.28l.06-.13a37.09,37.09,0,0,1,7.89-11.15,27.83,27.83,0,0,1,12-7.3,16.4,16.4,0,0,1,9.71,0c3.4,1.1,5.17,3.52,5,6.81-.18,3-2.52,6.63-7.18,11-4.29,4-11.84,8.66-22.46,13.87,0,2.35.37,4.09,1.14,5a6.79,6.79,0,0,0,2.77,2.29,7.45,7.45,0,0,0,4.09.37,15.69,15.69,0,0,0,6.12-2.94,47.35,47.35,0,0,0,6.36-5.71,73.14,73.14,0,0,0,5.67-6.87c1.75-2.4,3.29-4.72,4.6-6.9,0,0,3.13-5.94,3.53-5.88s.36,6.11-1.47,9.87a34.66,34.66,0,0,1-2.71,4.76,60.21,60.21,0,0,1-6.63,8.69,54.43,54.43,0,0,1-9.4,8.25,20.55,20.55,0,0,1-11.78,4h-1.3a10.47,10.47,0,0,1-4.77-2.16,11.43,11.43,0,0,1-3.77-5.26,19.87,19.87,0,0,1-1-8.59h0c-1.58,2-3.22,3.9-5,5.75a64.82,64.82,0,0,1-6.92,6.81c-2.56,2.14-4.71,3.31-6.58,3.58a4.82,4.82,0,0,1-.67,0c-1.29,0-3.32-.53-4.18-3.63-.61-2.16-.29-5.76,1-11.35.37-1.73.77-3.45,1.2-5.18-.29.38-.56.76-.87,1.15-2.1,2.7-4.46,5.43-7,8.13-5.62,6.4-10.39,9.78-14.54,10.28l-.45,0c-1.34,0-3.62-.55-4.39-4.15-.48-2.25-.22-5.75.8-10.68q-1.52,2-3.19,3.91a62.63,62.63,0,0,1-7.08,7.08,17.53,17.53,0,0,1-7.36,4c-3.73.75-5.42-.81-6.17-2.25a10.55,10.55,0,0,1-.83-6.39,67.19,67.19,0,0,1,2.63-9.32q1.89-5.45,3.67-10.58a55.42,55.42,0,0,0,2.38-8.87c.1-.61.36-2.51-.25-3.09A9.06,9.06,0,0,0,131,106a51.65,51.65,0,0,0-6,4c-2.11,1.6-4.05,3.22-5.79,4.81a33.24,33.24,0,0,0-3.1,3.07,55.85,55.85,0,0,0-3,6.08c-1.17,2.7-2.32,5.52-3.43,8.4s-2.18,5.55-3.13,7.84c-1.32,3.14-1.54,4.55-2.08,5.16a3.74,3.74,0,0,1-1.85.13,7.54,7.54,0,0,1-1.57-.2c-.61-.39-.22-2.18.06-3.55.39-1.93,1-4.47,1.8-7.55.31-1.18.66-2.43,1-3.71q-1.46,1.81-3.13,3.62-2.52,2.52-5.83,5.26a55.2,55.2,0,0,1-6.66,4.71,124.84,124.84,0,0,1-7.28,20c-3.12,6.76-6.51,13.32-10.09,19.5s-7.3,12-11.09,17.48-7.33,10.28-10.51,14.42-6,7.62-8.31,10.22a44.83,44.83,0,0,1-4.49,4.71,85.41,85.41,0,0,1-12,9.58,41.25,41.25,0,0,1-11.71,5.66,14.08,14.08,0,0,1-3.62.51,9,9,0,0,1-5.9-2c-2.51-2.07-3.57-6-3.24-11.88a65.16,65.16,0,0,1,6-22.38,120.09,120.09,0,0,1,13.65-22.79,136,136,0,0,1,19-20.39A109.93,109.93,0,0,1,61,151.48L70,147q5-2.52,9.86-5,1-3.16,1.7-5.4l.45-1.42-.72.76a39.24,39.24,0,0,1-7.89,6.37,24.58,24.58,0,0,1-7.86,3.2c-2.79.54-5.08,0-6.8-1.48s-2.48-4.05-2.31-7.7c0-.34.05-.7.09-1.06-5.43,6.09-10.07,9.33-14.11,9.81l-.45,0c-1.34,0-3.62-.55-4.39-4.15-.5-2.32-.21-6,.89-11.12A63.93,63.93,0,0,1,40,123.49c.77-2.16,1.7-4.79,2.81-8a111.34,111.34,0,0,1,4.86-11.41c2-3.74,3.74-5.77,5.38-6.45a4,4,0,0,1,4.76.84,7.18,7.18,0,0,1,1.86,4.68,13.62,13.62,0,0,1-.41,4s-.94,5.68-1.71,5.79-1.33-5.89-1.33-5.89a3,3,0,0,0-.13-.44,14.88,14.88,0,0,0-3.57,5.25,81.42,81.42,0,0,0-3.06,8c-.88,2.72-1.58,5.15-2.08,7.23-.66,2.73-.73,3.28-.74,3.36l0,.21c-.73,4.17-.32,5.08-.27,5.17.21.29,1.19,0,1.39,0a14,14,0,0,0,4.84-3.1,76.23,76.23,0,0,0,5.34-5.45c.3-.34.58-.69.88-1,.38-1.05.79-2.14,1.26-3.3a44.21,44.21,0,0,1,4.29-7.54,50.83,50.83,0,0,1,5.74-6.89,53.62,53.62,0,0,1,6.42-5.5,38.58,38.58,0,0,1,6.39-3.83,13.87,13.87,0,0,1,7-.8,11.14,11.14,0,0,1,5.29,2.22c1.4-1.51,2.68-2.23,4-2.23a4.07,4.07,0,0,1,3.74,2.42,10.56,10.56,0,0,1,.95,4.71,11.67,11.67,0,0,1-.8,4.63s-1.73,4.84-2.11,4.91c-.46-.15-.88-5.27-.88-5.27a7.4,7.4,0,0,0-.38-1.44,45.23,45.23,0,0,0-6.23,15.53c-1,4.65-2.09,9.22-3.36,13.62a63.91,63.91,0,0,0,6-4.86,69.27,69.27,0,0,0,6.7-7.79c2.06-2.79,3.76-5.24,5.06-7.27l.49-.77c.38-1,.76-2,1.14-3a28.8,28.8,0,0,1,1.26-3.09,28,28,0,0,0,1.16-2.84,21.56,21.56,0,0,0,1-2.86,7.7,7.7,0,0,0-.92.48s-1.7-1.66-1.81-2.55c5.3-4.28,6.88-4.5,8.09-4.36,2,.26,3.16,1.78,3,4.08a18.1,18.1,0,0,1-1,4.79,74.67,74.67,0,0,1,6.77-4.65,45,45,0,0,1,8-3.92c1.14-.42,4.61-1.68,6.66.36,1.38,1.39,1.95,3.46,1.68,6.17a51.53,51.53,0,0,1-1.49,7.81c-.76,2.88-1.71,6-2.82,9.14s-2.1,6.31-3,9.38c-1.14,4.55-.65,5.59-.59,5.69s.19.33.9,0a16.72,16.72,0,0,0,4.43-3.46c1.87-1.87,3.75-3.94,5.58-6.13s3.56-4.44,5.16-6.69c1.09-1.53,2-2.83,2.65-3.93l.59-1.69a111.34,111.34,0,0,1,4.86-11.41c2-3.74,3.74-5.77,5.38-6.45a4,4,0,0,1,4.76.84A8.25,8.25,0,0,1,171.6,103c.27,2-1.51,8.59-2.37,8.48-.78.07-1-4.1-1-4.1q-.1-.39-.2-.73a15,15,0,0,0-3.53,5.21,81.42,81.42,0,0,0-3.06,8c-.88,2.72-1.58,5.15-2.08,7.23-.66,2.73-.73,3.28-.74,3.36l0,.21c-.73,4.17-.32,5.08-.27,5.17.21.29,1.19,0,1.39,0a14,14,0,0,0,4.84-3.1,76.23,76.23,0,0,0,5.34-5.45,72.2,72.2,0,0,0,4.79-6,54.37,54.37,0,0,0,3.46-5.41l2.95-4.9h0q1.63-4.65,3.54-9.21c3.57-8.5,7.48-17.19,11.65-25.88h-.07c-2.16.16-4.41.29-6.65.43-8.3.51-16.15,1-24.1,2.49-10.46,2-24.07,4.21-27,4.51,0,0-8.5,1.41-8.42.86s7.55-3.82,7.55-3.82c2-1,41.27-9.52,61.59-10.67,2.4-5.06,5.12-10.52,8.09-16.24,3.13-6,6.55-12.09,10.19-18a199.62,199.62,0,0,1,11.78-17.17A121.6,121.6,0,0,1,242.55,3.44c2.19-2.2,4.17-3.33,6-3.43a4,4,0,0,1,4.11,2.11c.07,1.59.51,2.08-2,4.66C246.41,11,243,14.95,238.81,19.85a151,151,0,0,0-12.12,16.42c-3.81,5.93-7.42,12.08-10.74,18.26-2.81,5.24-5.36,10.14-7.62,14.58l2.49-.08,7.79-.33c6.29-.15,12.58-.07,18.74.22s12.4.63,18.72,1,12.64.63,18.87.78A162.78,162.78,0,0,0,293.8,70h0a56.14,56.14,0,0,0,19.06-4.66,67.69,67.69,0,0,0,16.76-10.55S340.82,44.26,341.32,44.85ZM69.21,138.08c2.27-.32,5-1.92,8.2-4.74s6.32-7.15,9.17-12.7q1.31-3.72,2.52-7.24t2-5.8c.11-4.22-1.48-4.82-2-5a4.65,4.65,0,0,0-1.65-.29,9.71,9.71,0,0,0-4.69,1.52,34.38,34.38,0,0,0-8.92,8.2,47.28,47.28,0,0,0-7.75,14.66h0c-1.47,4.26-1.76,7.5-.85,9.38A3.3,3.3,0,0,0,69.21,138.08ZM20.77,235a47,47,0,0,0,9.47-6.25,68.18,68.18,0,0,0,9.14-9.14c.41-.55,2-2.48,4.9-6A166,166,0,0,0,54.09,200a213.21,213.21,0,0,0,11.49-19.89,152.91,152.91,0,0,0,10-25v0q.44-1.33,1.67-5.11l.58-1.81c-3.1,1.57-6.17,3.14-9.16,4.69a134.61,134.61,0,0,0-12.77,7.59A66.8,66.8,0,0,0,48,166.94c-3.15,2.93-6.52,6.38-10,10.26a162.93,162.93,0,0,0-10.47,12.9,105.15,105.15,0,0,0-9,14.59A79.36,79.36,0,0,0,12.6,220a39.61,39.61,0,0,0-1.18,14.89c.19,1.45.78,2,2.17,2.06A16.36,16.36,0,0,0,20.77,235ZM226.89,102.85c-.31-.33-1.27-1.34-4.28-.18A21.5,21.5,0,0,0,214,109a31.12,31.12,0,0,0-4.88,8.37,53.05,53.05,0,0,0-2.15,7.7c6-2.8,10.62-5.73,13.73-8.71,3.51-3.37,5.69-6.34,6.5-8.82C228.25,104.3,227.22,103.21,226.89,102.85ZM168.66,92.43c2,.46,4.4.16,5.44-.91a5.63,5.63,0,0,0,1.5-3.42,7,7,0,0,0-.44-3.72,3.83,3.83,0,0,0-2.59-2.49,4.48,4.48,0,0,0-3.56.94,8.78,8.78,0,0,0-2.43,2.7,6,6,0,0,0-.88,3.59C165.76,90,166.23,91.62,168.66,92.43Z"/></g></g></svg>